<?xml version="1.0" standalone="no"?>
<!DOCTYPE svg PUBLIC "-//W3C//DTD SVG 20010904//EN"
 "http://www.w3.org/TR/2001/REC-SVG-20010904/DTD/svg10.dtd">
<svg version="1.0" xmlns="http://www.w3.org/2000/svg"
 width="352.000000pt" height="352.000000pt" viewBox="0 0 352.000000 352.000000"
 preserveAspectRatio="xMidYMid meet">
<metadata>
Created by potrace 1.11, written by Peter Selinger 2001-2013
</metadata>
<g transform="translate(0.000000,352.000000) scale(0.100000,-0.100000)"
fill="#000000" stroke="none">
<path d="M1778 3371 c-14 -12 -39 -45 -56 -73 -16 -29 -78 -136 -136 -236 -67
-116 -106 -194 -106 -212 0 -16 11 -41 24 -57 l24 -28 667 0 c502 0 675 3 696
12 33 14 52 54 44 93 -14 62 -236 238 -429 338 -133 70 -330 137 -462 156 -22
4 -49 8 -59 10 -11 2 -56 7 -100 11 -72 6 -83 4 -107 -14z"/>
<path d="M1327 3334 c-3 -3 -11 -7 -19 -8 -58 -10 -244 -85 -335 -136 -231
-127 -451 -328 -584 -533 -32 -49 -36 -62 -29 -88 11 -37 255 -464 283 -496
30 -33 90 -32 120 3 12 14 74 116 138 227 64 111 149 258 189 327 40 69 88
152 107 185 18 33 38 67 43 75 26 42 100 172 100 176 0 3 15 28 33 57 68 109
75 139 39 177 -26 27 -73 46 -85 34z"/>
<path d="M1646 2533 c-284 -87 -342 -479 -96 -647 l46 -32 -38 -18 c-130 -62
-266 -237 -342 -437 -62 -165 -101 -387 -74 -420 31 -38 44 -39 555 -39 428 0
502 2 520 15 21 15 112 164 132 217 8 21 5 45 -14 112 -75 255 -207 452 -366
544 l-51 29 35 22 c48 30 101 90 134 153 25 48 28 63 28 153 0 88 -4 106 -28
155 -81 167 -266 247 -441 193z"/>
<path d="M2555 2518 c-21 -25 -25 -38 -21 -62 4 -16 66 -134 140 -260 73 -127
143 -247 153 -266 54 -95 154 -267 163 -280 6 -8 13 -22 17 -30 4 -8 32 -58
63 -110 31 -52 59 -102 63 -110 4 -8 18 -33 32 -55 14 -22 28 -45 31 -52 6
-13 52 -32 76 -31 31 2 69 42 79 83 36 150 44 220 44 395 0 157 -8 254 -31
350 -3 14 -8 35 -10 47 -9 46 -64 205 -100 285 -61 137 -35 128 -379 128
l-293 0 -27 -32z"/>
<path d="M195 2208 c-44 -39 -80 -250 -79 -468 0 -175 14 -275 61 -445 24 -90
103 -286 126 -316 28 -36 51 -39 332 -39 314 0 329 3 341 69 8 40 14 28 -171
346 -70 121 -176 306 -236 410 -60 105 -114 197 -119 205 -5 8 -37 63 -71 123
-33 59 -71 114 -82 122 -31 22 -72 18 -102 -7z"/>
<path d="M2768 1433 c-22 -14 -49 -57 -178 -282 -8 -14 -31 -53 -50 -86 -19
-33 -39 -69 -46 -80 -6 -11 -55 -96 -109 -190 -264 -456 -305 -530 -305 -549
0 -37 25 -71 60 -82 30 -10 47 -7 132 22 322 108 602 310 797 573 83 113 92
132 82 169 -5 17 -51 101 -101 189 -51 87 -102 176 -115 198 -47 86 -67 114
-85 120 -41 13 -57 12 -82 -2z"/>
<path d="M621 714 c-26 -11 -49 -47 -45 -71 1 -7 2 -20 3 -29 2 -34 177 -181
321 -271 132 -82 288 -148 445 -187 135 -34 169 -39 315 -50 78 -6 71 -14 224
249 163 282 162 280 144 321 -23 49 -7 48 -717 49 -465 0 -671 -3 -690 -11z"/>
</g>
</svg>
